<?xml version="1.0" encoding="UTF-8"?>
<svg id="Layer_1" data-name="Layer 1" xmlns="http://www.w3.org/2000/svg" viewBox="0 0 841.89 595.28">
  <defs>
    <style>
      .cls-1 {
        fill: #811431;
      }
    </style>
  </defs>
  <g>
    <path d="M251.11,363.47v21.06h-28.13v-21.06h-6.99v48.98h6.99v-21.83h28.13v21.83h7v-48.98h-7Z"/>
    <path d="M329.89,362.91c-15.04,0-26.1,10.71-26.1,25.05,0,4.93,1.31,9.43,3.64,13.21,.42,.69,.87,1.35,1.36,1.99,.74,.96,1.54,1.86,2.41,2.7,.23,.22,.47,.44,.71,.65,.17,.16,.34,.3,.51,.44,.22,.19,.44,.37,.66,.54,.3,.24,.61,.47,.92,.69,.34,.24,.68,.47,1.03,.69,.69,.44,1.4,.84,2.14,1.22,.37,.18,.75,.36,1.13,.53,.38,.18,.77,.34,1.16,.49,.4,.15,.8,.3,1.2,.44,.41,.13,.82,.26,1.24,.38,.41,.11,.83,.22,1.26,.32,.42,.1,.84,.19,1.27,.27h.04c.43,.08,.86,.15,1.3,.21,.37,.05,.73,.1,1.11,.13,.12,.02,.24,.03,.36,.04,.4,.03,.8,.06,1.2,.08h.06c.46,.02,.92,.03,1.39,.03,.43,0,.86-.01,1.29-.03,.87-.03,1.72-.11,2.55-.21,.18-.02,.35-.05,.52-.08,.7-.1,1.4-.23,2.08-.38,.01,0,.03,0,.04,0,.19-.04,.37-.08,.55-.13,.3-.07,.6-.15,.9-.24,.82-.23,1.63-.5,2.41-.81,.37-.14,.73-.29,1.09-.45,.06-.03,.12-.05,.18-.08,.34-.16,.68-.32,1.01-.49,.37-.18,.74-.38,1.09-.58,.36-.21,.71-.42,1.05-.64,.3-.19,.6-.38,.89-.59,.38-.26,.74-.53,1.1-.81,.63-.5,1.24-1.03,1.82-1.59,1.73-1.67,3.21-3.6,4.37-5.73,.38-.71,.74-1.44,1.06-2.2,.47-1.14,.87-2.32,1.18-3.55,.2-.82,.37-1.65,.49-2.5,.19-1.28,.29-2.6,.29-3.95,0-14.41-11.06-25.05-25.96-25.05Zm18.59,28.97c-.12,.63-.27,1.24-.45,1.84-.89,3-2.48,5.62-4.59,7.71-.32,.31-.65,.62-.99,.91-.34,.29-.69,.57-1.05,.83-.25,.18-.49,.35-.75,.51-.19,.13-.4,.26-.6,.38-.31,.19-.63,.37-.96,.54-.27,.14-.54,.28-.82,.4-.48,.22-.98,.43-1.49,.61-.11,.04-.21,.08-.32,.11-.26,.09-.53,.17-.79,.25-.46,.13-.93,.25-1.4,.35-.21,.05-.42,.09-.64,.13-.28,.05-.56,.1-.85,.13-.21,.03-.43,.06-.65,.08-.32,.04-.65,.06-.98,.08-.42,.03-.84,.04-1.26,.04s-.85-.01-1.27-.04c-.34-.02-.67-.04-.99-.08-.22-.02-.43-.04-.64-.08-.3-.03-.6-.07-.89-.13-.21-.04-.41-.08-.61-.13-.49-.09-.97-.21-1.44-.35-.26-.07-.51-.15-.76-.24-.12-.03-.24-.07-.36-.12-.52-.18-1.02-.39-1.51-.61-.28-.12-.56-.26-.83-.4-.31-.16-.62-.33-.91-.51-.22-.13-.44-.27-.66-.41-.25-.16-.5-.33-.75-.51-.39-.28-.76-.58-1.13-.89-.32-.28-.63-.56-.92-.85-.85-.83-1.62-1.75-2.28-2.75-.34-.5-.65-1.02-.93-1.55-.16-.29-.3-.59-.44-.89-.11-.22-.21-.45-.3-.68-.13-.31-.25-.62-.36-.94-.09-.26-.18-.52-.26-.78-.08-.26-.16-.52-.22-.79-.05-.19-.1-.38-.14-.58-.04-.15-.07-.3-.1-.45-.17-.82-.28-1.67-.34-2.53-.02-.21-.03-.43-.04-.64-.01-.3-.02-.59-.02-.89,0-.38,.01-.76,.03-1.13,.02-.37,.05-.74,.09-1.11,.03-.28,.06-.55,.11-.82,.02-.21,.06-.42,.1-.63,.04-.22,.08-.43,.13-.64,0-.04,.01-.07,.02-.1,.05-.25,.11-.49,.17-.73,.05-.19,.1-.38,.16-.56,.01-.04,.02-.07,.03-.11,.09-.28,.18-.55,.27-.82,.09-.26,.18-.51,.29-.76,.13-.32,.26-.64,.41-.95,.13-.28,.27-.55,.41-.81,.28-.54,.59-1.06,.93-1.55,.19-.29,.4-.58,.61-.86,.05-.06,.09-.11,.14-.17,.16-.22,.34-.44,.53-.65,.05-.06,.1-.12,.16-.18,.18-.21,.37-.42,.57-.62,.05-.06,.11-.12,.17-.17,.24-.25,.49-.49,.75-.72h.01c.28-.25,.56-.49,.85-.71,.01-.01,.02-.02,.03-.02,.24-.2,.49-.39,.75-.56,.11-.08,.23-.16,.35-.24,.12-.08,.23-.15,.35-.23,.19-.12,.38-.24,.58-.35,.53-.31,1.08-.6,1.65-.85,.15-.07,.3-.14,.45-.19,.23-.11,.47-.2,.71-.29,.07-.03,.14-.06,.21-.08,.3-.11,.61-.21,.93-.3,.4-.14,.81-.25,1.23-.35,.36-.08,.72-.16,1.09-.22,.3-.06,.6-.11,.91-.14,.22-.04,.44-.06,.66-.08,.32-.04,.65-.06,.99-.08,.42-.03,.84-.04,1.27-.04,10.84,0,18.96,7.97,18.96,18.82,0,1.36-.13,2.66-.37,3.92Z"/>
    <path d="M436.51,363.47v27.57c0,5.43-1.26,9.37-3.62,11.94-.15,.16-.3,.32-.46,.46-.14,.15-.31,.3-.48,.44-.33,.28-.67,.54-1.03,.78-.18,.11-.37,.23-.57,.34-1.32,.77-2.85,1.28-4.56,1.55-.98,.15-2.03,.23-3.13,.23-.35,0-.69-.01-1.03-.02-.2-.01-.39-.02-.58-.04-.4-.03-.79-.07-1.17-.12-.21-.03-.41-.06-.61-.1-.24-.04-.47-.09-.7-.14-.19-.04-.36-.08-.54-.13-.3-.07-.59-.16-.87-.26-.03-.01-.07-.02-.1-.03-.31-.1-.6-.22-.89-.34-.21-.09-.41-.18-.6-.28-.45-.23-.89-.48-1.3-.77-.3-.21-.59-.43-.87-.67-.17-.14-.33-.29-.48-.44-.62-.6-1.17-1.28-1.65-2.06-.12-.18-.23-.37-.34-.57,0,0-.01-.02-.01-.03-.09-.16-.18-.32-.25-.49-.14-.26-.26-.52-.37-.8-.12-.28-.23-.57-.33-.87-.09-.27-.18-.55-.26-.84-.47-1.62-.74-3.47-.81-5.57-.01-.38-.02-.77-.02-1.17v-27.57h-7v27.85c0,4.44,.77,8.22,2.21,11.32,.29,.62,.61,1.22,.95,1.78,.17,.28,.35,.56,.53,.83,.37,.54,.77,1.05,1.19,1.53,.21,.25,.43,.48,.65,.71,.34,.35,.7,.69,1.08,1,.21,.19,.43,.37,.66,.54,.65,.5,1.34,.95,2.07,1.36,3.12,1.74,6.95,2.62,11.37,2.62s8.29-.88,11.41-2.62c.85-.48,1.65-1.01,2.39-1.61,.49-.41,.97-.83,1.41-1.29,1.34-1.37,2.44-2.99,3.3-4.85,.29-.62,.55-1.26,.78-1.94,.94-2.7,1.42-5.83,1.42-9.38v-27.85h-6.79Z"/>
    <path d="M533.88,395.97c-.05-.23-.11-.45-.18-.66-.04-.16-.09-.32-.15-.47-.03-.09-.06-.18-.09-.26-.07-.19-.15-.37-.23-.54-.08-.18-.16-.35-.25-.52-.02-.05-.05-.1-.08-.15-.07-.14-.15-.28-.24-.41-.25-.44-.54-.84-.85-1.22-.11-.13-.22-.26-.33-.38-.14-.16-.29-.31-.44-.46-.3-.3-.62-.58-.95-.84-.16-.13-.33-.26-.51-.39s-.35-.25-.53-.37c-.36-.24-.74-.46-1.12-.67-.77-.43-1.6-.81-2.45-1.15-.22-.08-.43-.17-.65-.25-.25-.09-.5-.18-.75-.27-.37-.13-.74-.25-1.12-.37-.08-.02-.16-.05-.24-.07-.64-.2-1.3-.38-1.95-.56-.46-.13-.93-.25-1.39-.36-.63-.16-1.27-.32-1.9-.47-.52-.13-1.04-.26-1.55-.38-.5-.12-1.01-.25-1.5-.38-1.04-.27-2.05-.55-3-.86-.4-.13-.78-.27-1.16-.41-.93-.36-1.79-.76-2.54-1.22-.15-.09-.3-.19-.44-.29-.42-.29-.81-.61-1.14-.95-.21-.21-.4-.44-.57-.67-.01-.02-.02-.03-.03-.05-.07-.1-.14-.2-.21-.31-.06-.1-.11-.2-.16-.3-.12-.21-.21-.43-.29-.65-.04-.11-.08-.22-.11-.33-.15-.52-.23-1.09-.23-1.71,0-.22,.01-.43,.03-.64,.02-.21,.04-.42,.08-.63,.03-.15,.06-.29,.1-.44,.01-.08,.03-.15,.06-.23,0-.02,.01-.04,.02-.07,.04-.16,.1-.31,.16-.47,.07-.18,.15-.36,.24-.54,.01-.01,.02-.02,.02-.03,.09-.19,.2-.38,.32-.56,.11-.18,.24-.35,.38-.52,.13-.17,.27-.34,.44-.5,.09-.1,.19-.2,.3-.3,.14-.12,.3-.25,.46-.38,.13-.11,.28-.22,.43-.31,.15-.11,.3-.21,.46-.3,1.44-.86,3.36-1.47,5.79-1.71,.27-.03,.55-.05,.83-.07,.17-.01,.35-.02,.53-.03,.16-.01,.32-.02,.48-.02,.25-.01,.51-.01,.77-.01,.41,0,.82,.01,1.23,.04,.2,0,.41,.02,.62,.04,.21,.01,.42,.03,.63,.06,.24,.02,.48,.05,.72,.08,.07,.01,.14,.02,.21,.03,.25,.04,.51,.08,.76,.13,.18,.03,.36,.06,.55,.1,.3,.06,.61,.13,.91,.2,.65,.15,1.31,.34,1.96,.55,.57,.18,1.14,.39,1.7,.62,1.13,.46,2.25,1,3.33,1.64,.27,.16,.54,.32,.81,.49l2.31-5.59c-4.06-2.8-10.01-4.34-15.74-4.34-.4,0-.8,.01-1.19,.02-.24,.01-.47,.02-.71,.03-.75,.04-1.48,.1-2.18,.19-.31,.03-.61,.08-.9,.12-.03,.01-.05,.01-.08,.02-.37,.05-.73,.12-1.08,.19h-.02c-.29,.06-.57,.12-.85,.19-.43,.1-.84,.21-1.24,.33-.34,.1-.66,.21-.98,.32-.57,.2-1.1,.42-1.62,.66-.51,.23-1,.49-1.46,.76-.3,.18-.6,.37-.88,.57-.23,.15-.46,.32-.68,.49-.04,.03-.08,.06-.11,.09-.18,.14-.35,.28-.51,.43-.1,.08-.19,.16-.28,.24-.18,.18-.35,.35-.52,.52-.44,.46-.84,.93-1.19,1.44-.08,.11-.16,.22-.24,.34-.1,.15-.19,.3-.28,.45-.1,.16-.19,.32-.27,.48-.15,.27-.28,.54-.41,.82-.17,.39-.32,.79-.45,1.19-.06,.17-.11,.33-.15,.5-.04,.13-.08,.27-.11,.41-.03,.14-.06,.28-.09,.42-.05,.22-.09,.45-.12,.68-.04,.23-.07,.46-.09,.69-.02,.23-.04,.46-.05,.69-.01,.24-.02,.47-.02,.71,0,.27,.01,.54,.02,.8,.03,.57,.09,1.12,.18,1.63,.04,.24,.08,.47,.13,.69,.12,.5,.26,.98,.43,1.43,.07,.19,.15,.37,.23,.56,.09,.2,.18,.4,.29,.6,.09,.18,.19,.35,.29,.53,.28,.46,.59,.89,.93,1.29,.1,.13,.21,.25,.32,.37,.12,.13,.24,.26,.36,.38,.19,.19,.39,.38,.6,.56,.27,.24,.56,.47,.86,.69,.34,.25,.71,.49,1.08,.72,.38,.23,.76,.44,1.16,.65,.4,.2,.81,.39,1.23,.58,.37,.16,.74,.31,1.12,.45,.38,.15,.76,.29,1.15,.42,.11,.04,.22,.07,.33,.11,.28,.09,.56,.18,.85,.27,.85,.26,1.71,.5,2.58,.73,1.16,.3,2.32,.58,3.46,.86,.45,.11,.91,.22,1.35,.33,.45,.11,.89,.23,1.33,.34,.22,.06,.43,.12,.65,.18,.42,.12,.84,.24,1.25,.36,.82,.25,1.6,.52,2.32,.82,.36,.14,.71,.3,1.04,.47,.18,.09,.35,.18,.52,.28,.15,.08,.29,.16,.43,.25,.15,.09,.3,.18,.44,.28,.14,.1,.28,.2,.41,.3,.27,.21,.51,.43,.73,.66,.23,.23,.43,.47,.61,.73,.05,.07,.1,.14,.14,.22,.08,.11,.14,.22,.2,.33,.06,.12,.12,.24,.17,.36,.04,.07,.07,.15,.1,.22,.04,.1,.08,.2,.11,.31,.02,.06,.03,.11,.05,.17,.03,.11,.06,.22,.08,.34,.05,.23,.09,.47,.11,.72,.02,.2,.03,.4,.03,.61s-.01,.43-.03,.64c-.01,.15-.03,.3-.06,.44,0,.03,0,.06-.01,.09-.01,.08-.02,.16-.04,.23-.03,.16-.07,.32-.12,.47-.05,.18-.11,.36-.18,.53-.09,.23-.19,.45-.31,.67-.09,.17-.19,.33-.3,.49-.09,.15-.19,.28-.31,.42-.05,.07-.11,.14-.17,.21-.11,.13-.23,.25-.35,.37-.36,.35-.77,.68-1.24,.98-.12,.08-.25,.16-.39,.23-.35,.21-.73,.39-1.14,.56-.18,.08-.36,.15-.54,.21-.2,.08-.41,.15-.62,.21-.33,.1-.68,.2-1.05,.28-.12,.03-.24,.06-.37,.08-.08,.02-.15,.03-.23,.04-.38,.08-.78,.15-1.19,.2-.26,.03-.53,.06-.8,.09-.21,.02-.43,.04-.66,.05-.15,.01-.31,.02-.46,.03l-.75,.03c-.25,0-.51,0-.78,0-.44,0-.89,0-1.33-.04-.3,0-.59-.03-.88-.06-1.24-.1-2.47-.29-3.66-.56-.73-.17-1.45-.37-2.15-.58-.36-.11-.71-.23-1.06-.36-.35-.13-.69-.26-1.03-.4-.34-.14-.68-.28-1-.43-.33-.15-.65-.31-.96-.47-.56-.28-1.09-.58-1.59-.9-.36-.21-.7-.44-1.03-.68-.53-.38-1.03-.78-1.48-1.19h0s-1.05,2.21-1.05,2.21l-1.54,3.25h.01s.02,.03,.03,.03c.23,.22,.48,.43,.73,.64h.01c.27,.22,.55,.43,.84,.64h.01c.3,.21,.61,.42,.92,.61,.32,.2,.64,.39,.98,.58h0c.33,.19,.68,.36,1.04,.54h.01c.35,.18,.72,.34,1.09,.51h.01c.19,.08,.38,.16,.57,.24,.34,.14,.69,.28,1.05,.4,.24,.09,.49,.17,.73,.25,.41,.14,.82,.27,1.24,.39,.42,.12,.85,.23,1.28,.34,.87,.21,1.76,.39,2.66,.54,1.8,.29,3.67,.45,5.54,.45,.4,0,.8-.01,1.19-.02,.25-.01,.49-.02,.73-.03,.75-.04,1.47-.1,2.16-.19,.32-.03,.63-.07,.93-.12,.03-.01,.06-.01,.08-.02,.35-.05,.7-.11,1.04-.18,.03,0,.06-.01,.09-.02,.31-.06,.61-.12,.91-.2,.76-.18,1.48-.39,2.17-.63,.32-.11,.63-.23,.94-.36,.32-.13,.64-.27,.94-.42,.24-.11,.46-.22,.68-.34,.36-.19,.7-.39,1.03-.6,.21-.12,.41-.26,.6-.4,.18-.12,.35-.24,.51-.37,.11-.09,.22-.17,.33-.26,.39-.32,.76-.65,1.1-1,.15-.15,.29-.31,.43-.46,.14-.16,.28-.32,.4-.48,.1-.12,.2-.24,.29-.37,1.01-1.36,1.7-2.87,2.07-4.48,.04-.17,.08-.33,.11-.5,.03-.16,.06-.31,.08-.46,.03-.21,.06-.42,.08-.63,.02-.23,.04-.46,.05-.69s.02-.47,.02-.7c0-1.14-.12-2.17-.34-3.11Z"/>
    <path d="M597.36,406.36v-15.81h24.56v-5.95h-24.56v-15.04h27.57v-6.09h-34.57v48.98h35.55v-6.09h-28.55Z"/>
  </g>
  <g>
    <path class="cls-1" d="M786.98,248.74c-7.32-24.49-25.55-45.6-48.56-56.66-75.22-36.12-150.27,33.78-148.78,107.38h0s-29.07-35.19-29.07-35.19l-14.92,16.4,54.04,62.7h26.22c-57.05-82.04,57.58-197.12,131.06-108.52,26.4,34.12,4.91,89.32-39.52,90.8-32.28,1.27-58.33-41.06-30.03-64.01l-14.27-17.27c-51.55,44.32,4.81,120.75,64.43,99.83,38.37-12.45,61.44-56.92,49.4-95.47Z"/>
    <path class="cls-1" d="M252.25,299.47c1.49-73.6-73.56-143.5-148.78-107.38-23.01,11.06-41.24,32.17-48.56,56.66-12.04,38.55,11.03,83.02,49.4,95.47,59.62,20.92,115.98-55.51,64.43-99.83l-14.27,17.27c28.3,22.95,2.25,65.28-30.03,64.01-44.43-1.48-65.92-56.68-39.52-90.8,73.48-88.6,188.11,26.48,131.06,108.52h89.34s8.83-19.52,8.83-19.52h-65.13c2.03-8.27,2.82-15.99,3.22-24.4Z"/>
    <polygon class="cls-1" points="587.64 222.19 520.19 293.04 520.19 264.54 561.36 222.19 587.64 222.19"/>
    <rect class="cls-1" x="488.49" y="186.45" width="22.41" height="156.92"/>
    <polygon class="cls-1" points="385.7 186.45 314.63 343.38 337.72 343.38 354.98 304.14 429.06 304.14 421.2 286.21 362.86 286.21 396.68 209.31 455.64 343.38 479.18 343.38 407.89 186.45 385.7 186.45"/>
  </g>
</svg>