<svg version="1.2" xmlns="http://www.w3.org/2000/svg" viewBox="0 0 775 265" width="775" height="265">
	<title>lako-svg</title>
	<style>
		.s0 { fill: #000000 } 
		.s1 { fill: #811431 } 
	</style>
	<g id="Layer">
		<path id="Layer" class="s0" d="m224.1 200.5v49h-7v-21.9h-28.1v21.9h-7v-49h7v21h28.1v-21z"/>
		<path id="Layer" fill-rule="evenodd" class="s0" d="m295.9 199.9c14.9 0 26 10.7 26 25.1q-0.1 2-0.3 3.9-0.2 1.3-0.5 2.5-0.5 1.9-1.2 3.6-0.5 1.1-1.1 2.2c-1.1 2.1-2.6 4-4.3 5.7q-0.9 0.8-1.9 1.6-0.5 0.4-1.1 0.8-0.4 0.3-0.9 0.6-0.5 0.3-1 0.6-0.5 0.3-1.1 0.6-0.5 0.3-1 0.5-0.1 0-0.2 0.1-0.5 0.2-1.1 0.4-1.1 0.5-2.4 0.8-0.4 0.2-0.9 0.3-0.2 0.1-0.5 0.1 0 0-0.1 0-1 0.2-2 0.4-0.3 0-0.6 0.1-1.2 0.1-2.5 0.2-0.7 0-1.3 0-0.7 0-1.4 0h-0.1q-0.6-0.1-1.2-0.1-0.1 0-0.3 0-0.6-0.1-1.1-0.2-0.7-0.1-1.3-0.2h-0.1q-0.6-0.1-1.2-0.3-0.7-0.1-1.3-0.3-0.6-0.2-1.2-0.3-0.6-0.3-1.2-0.5-0.6-0.2-1.2-0.5-0.6-0.2-1.1-0.5-1.1-0.6-2.2-1.2-0.5-0.4-1-0.7-0.5-0.3-0.9-0.7-0.3-0.3-0.7-0.6-0.2-0.2-0.5-0.4-0.4-0.3-0.7-0.6-1.3-1.3-2.4-2.7-0.7-1-1.4-2c-2.3-3.8-3.6-8.3-3.6-13.2 0-14.4 11-25.1 26.1-25.1zm18.9 25c0-10.8-8.1-18.8-18.9-18.8q-0.7 0-1.3 0.1-0.5 0-1 0-0.3 0.1-0.6 0.1-0.5 0.1-0.9 0.2-0.6 0.1-1.1 0.2-0.7 0.1-1.3 0.3-0.4 0.2-0.9 0.3-0.1 0.1-0.2 0.1-0.4 0.1-0.7 0.3-0.2 0.1-0.5 0.2-0.8 0.4-1.6 0.8-0.3 0.2-0.6 0.4-0.2 0.1-0.3 0.2-0.2 0.1-0.4 0.3-0.4 0.2-0.7 0.5-0.1 0-0.1 0-0.4 0.4-0.8 0.8-0.4 0.3-0.8 0.7-0.1 0.1-0.2 0.1-0.3 0.4-0.5 0.7-0.1 0.1-0.2 0.1-0.3 0.4-0.5 0.7-0.1 0.1-0.2 0.2-0.3 0.4-0.6 0.8-0.5 0.8-0.9 1.6-0.2 0.4-0.4 0.8-0.2 0.5-0.4 0.9-0.2 0.4-0.3 0.8-0.1 0.4-0.3 0.8 0 0.1 0 0.1-0.1 0.3-0.2 0.6-0.1 0.3-0.1 0.7 0 0.1-0.1 0.1 0 0.3-0.1 0.7 0 0.3-0.1 0.6-0.1 0.4-0.1 0.8-0.1 0.6-0.1 1.1 0 0.6 0 1.1 0 0.5 0 0.9 0 0.4 0 0.7 0.1 1.3 0.4 2.5 0 0.2 0.1 0.5 0.1 0.3 0.1 0.5 0.1 0.4 0.2 0.8 0.2 0.4 0.3 0.8 0.2 0.5 0.4 0.9 0.1 0.4 0.3 0.7 0.2 0.5 0.4 0.9 0.4 0.8 0.9 1.6 1 1.5 2.3 2.7 0.5 0.5 0.9 0.9 0.6 0.4 1.2 0.9 0.3 0.2 0.7 0.5 0.3 0.2 0.7 0.4 0.4 0.2 0.9 0.5 0.4 0.2 0.8 0.4 0.8 0.3 1.5 0.6 0.2 0.1 0.4 0.1 0.4 0.2 0.7 0.3 0.8 0.2 1.5 0.3 0.3 0.1 0.6 0.1 0.4 0.1 0.9 0.2 0.3 0 0.6 0 0.5 0.1 1 0.1 0.7 0.1 1.3 0.1 0.6 0 1.2-0.1 0.5 0 1-0.1 0.4 0 0.7 0 0.4-0.1 0.8-0.2 0.4 0 0.7-0.1 0.7-0.1 1.4-0.3 0.4-0.2 0.8-0.3 0.1 0 0.3-0.1 0.7-0.3 1.5-0.6 0.4-0.2 0.8-0.4 0.5-0.3 0.9-0.6 0.4-0.1 0.6-0.3 0.4-0.3 0.8-0.5 0.5-0.4 1-0.9 0.6-0.4 1-0.9c2.1-2.1 3.7-4.7 4.6-7.7q0.3-0.9 0.5-1.8 0.3-1.9 0.3-4z"/>
		<path id="Layer" class="s0" d="m409.3 200.5v27.8q0 5.3-1.4 9.4-0.4 1-0.8 1.9-1.3 2.8-3.3 4.9-0.7 0.7-1.4 1.3-1.1 0.9-2.4 1.6c-3.1 1.7-7 2.6-11.4 2.6-4.4 0-8.3-0.9-11.4-2.6q-1.1-0.6-2.1-1.4-0.3-0.2-0.6-0.5-0.6-0.5-1.1-1-0.3-0.3-0.6-0.7-0.7-0.7-1.2-1.5-0.3-0.5-0.6-0.9-0.5-0.8-0.9-1.8c-1.4-3.1-2.2-6.8-2.2-11.3v-27.8h7v27.5q0 0.6 0 1.2 0.1 3.2 0.8 5.6 0.1 0.4 0.3 0.8 0.1 0.5 0.3 0.9 0.2 0.4 0.4 0.8 0.1 0.2 0.2 0.5 0 0 0 0 0.2 0.3 0.4 0.6 0.7 1.1 1.6 2 0.2 0.3 0.5 0.5 0.4 0.3 0.9 0.7 0.6 0.4 1.3 0.7 0.3 0.2 0.6 0.3 0.4 0.2 0.9 0.3 0 0.1 0.1 0.1 0.4 0.1 0.8 0.2 0.3 0.1 0.6 0.2 0.3 0 0.7 0.1 0.3 0.1 0.6 0.1 0.6 0.1 1.2 0.1 0.2 0 0.5 0.1 0.5 0 1.1 0 1.6 0 3.1-0.3 2.6-0.4 4.6-1.5 0.2-0.2 0.5-0.3 0.6-0.4 1-0.8 0.3-0.2 0.5-0.5 0.3-0.2 0.5-0.4c2.3-2.6 3.6-6.5 3.6-12v-27.5z"/>
		<path id="Layer" class="s0" d="m499.9 233q0.3 1.4 0.3 3.1 0 0.3 0 0.7 0 0.3-0.1 0.7 0 0.3 0 0.6-0.1 0.2-0.1 0.4-0.1 0.3-0.1 0.5-0.6 2.5-2.1 4.5-0.1 0.2-0.3 0.4-0.2 0.2-0.4 0.5-0.2 0.2-0.4 0.4-0.5 0.6-1.1 1-0.2 0.2-0.3 0.3-0.3 0.2-0.6 0.4-0.2 0.2-0.6 0.4-0.5 0.3-1 0.6-0.3 0.1-0.7 0.3-0.4 0.2-0.9 0.4-0.5 0.2-0.9 0.4-1.1 0.3-2.2 0.6-0.5 0.1-0.9 0.2-0.1 0-0.1 0-0.5 0.1-1.1 0.2 0 0 0 0-0.5 0.1-1 0.2-1 0.1-2.1 0.1-0.4 0.1-0.8 0.1-0.5 0-1.1 0c-1.9 0-3.8-0.2-5.6-0.5q-1.3-0.2-2.6-0.5-0.7-0.2-1.3-0.3-0.7-0.2-1.3-0.4-0.3-0.1-0.7-0.3-0.5-0.2-1-0.4-0.3-0.1-0.6-0.2-0.6-0.3-1.1-0.5-0.6-0.3-1.1-0.6-0.5-0.2-0.9-0.5-0.5-0.3-1-0.7-0.4-0.3-0.8-0.6-0.4-0.3-0.8-0.6c0 0 0-0.1 0-0.1l1.5-3.2 1.1-2.2q0.7 0.6 1.5 1.2 0.5 0.3 1 0.7 0.8 0.4 1.6 0.8 0.5 0.3 1 0.5 0.4 0.2 1 0.5 0.5 0.2 1 0.3 0.5 0.2 1 0.4 1.1 0.3 2.2 0.6 1.8 0.4 3.7 0.5 0.4 0.1 0.8 0.1 0.7 0.1 1.4 0.1 0.4 0 0.7 0l0.8-0.1q0.2 0 0.5 0 0.3 0 0.6-0.1 0.4 0 0.8 0 0.6-0.1 1.2-0.2 0.1-0.1 0.2-0.1 0.2 0 0.4-0.1 0.6-0.1 1.1-0.2 0.3-0.1 0.6-0.3 0.2 0 0.5-0.2 0.6-0.2 1.2-0.5 0.2-0.1 0.3-0.3 0.7-0.4 1.3-0.9 0.2-0.2 0.3-0.4 0.1-0.1 0.2-0.2 0.2-0.2 0.3-0.4 0.2-0.3 0.3-0.5 0.2-0.4 0.3-0.7 0.1-0.3 0.2-0.5 0.1-0.3 0.1-0.5 0-0.1 0.1-0.2 0-0.1 0-0.1 0-0.2 0-0.5 0.1-0.3 0.1-0.6 0-0.3-0.1-0.6 0-0.4-0.1-0.7 0-0.2-0.1-0.4 0-0.1 0-0.1-0.1-0.2-0.1-0.3-0.1-0.2-0.1-0.3-0.1-0.1-0.2-0.3-0.1-0.2-0.2-0.4-0.1-0.1-0.1-0.2-0.3-0.4-0.6-0.7-0.4-0.4-0.8-0.7-0.2-0.1-0.4-0.3-0.2-0.1-0.4-0.2-0.2-0.2-0.4-0.3-0.3-0.1-0.6-0.3-0.5-0.2-1-0.4-1.1-0.5-2.3-0.9-0.6-0.1-1.3-0.3-0.3-0.1-0.6-0.2-0.7-0.2-1.4-0.3-0.6-0.2-1.3-0.4-1.7-0.4-3.5-0.8-1.3-0.4-2.6-0.8-0.4-0.1-0.8-0.2-0.2-0.1-0.3-0.1-0.6-0.2-1.2-0.5-0.5-0.2-1.1-0.4-0.6-0.3-1.2-0.6-0.6-0.3-1.2-0.6-0.6-0.4-1.1-0.8-0.4-0.3-0.8-0.7-0.3-0.2-0.6-0.5-0.2-0.2-0.4-0.4-0.2-0.2-0.3-0.4-0.5-0.6-0.9-1.3-0.2-0.2-0.3-0.5-0.2-0.3-0.3-0.6-0.1-0.3-0.3-0.6-0.2-0.6-0.4-1.4-0.1-0.3-0.1-0.7-0.1-0.7-0.2-1.6 0-0.4 0-0.8 0-0.4 0-0.7 0-0.4 0.1-0.7 0-0.3 0-0.7 0.1-0.3 0.2-0.7 0-0.2 0.1-0.4 0-0.2 0.1-0.4 0-0.3 0.1-0.5 0.2-0.6 0.5-1.2 0.2-0.4 0.4-0.8 0.1-0.3 0.2-0.5 0.2-0.2 0.3-0.4 0.1-0.2 0.3-0.4 0.5-0.7 1.2-1.4 0.2-0.3 0.5-0.5 0.1-0.2 0.3-0.3 0.2-0.2 0.5-0.4 0-0.1 0.1-0.1 0.3-0.3 0.7-0.5 0.4-0.3 0.8-0.6 0.7-0.4 1.5-0.7 0.8-0.4 1.6-0.7 0.5-0.1 1-0.3 0.6-0.2 1.2-0.3 0.5-0.1 0.9-0.2 0.5-0.1 1.1-0.2 0 0 0.1 0 0.4-0.1 0.9-0.1 1-0.2 2.1-0.2 0.4-0.1 0.8-0.1 0.5 0 1.1 0c5.8 0 11.7 1.6 15.8 4.4l-2.3 5.5q-0.4-0.2-0.8-0.4-1.7-1-3.4-1.7-0.8-0.3-1.7-0.6-0.9-0.3-1.9-0.6-0.5-0.1-0.9-0.2-0.3 0-0.6-0.1-0.4 0-0.7-0.1-0.1 0-0.3 0-0.3-0.1-0.7-0.1-0.3 0-0.6-0.1-0.3 0-0.6 0-0.6 0-1.3 0-0.3 0-0.7 0-0.3 0-0.5 0-0.3 0-0.5 0-0.5 0-0.9 0.1c-2.4 0.2-4.3 0.8-5.8 1.7q-0.2 0.1-0.4 0.3-0.2 0.1-0.4 0.3-0.3 0.2-0.5 0.4-0.2 0.1-0.3 0.3-0.3 0.2-0.4 0.5-0.3 0.2-0.4 0.5-0.2 0.3-0.3 0.6 0 0-0.1 0-0.1 0.3-0.2 0.5-0.1 0.3-0.2 0.5 0 0.1 0 0.1 0 0.1 0 0.2-0.1 0.2-0.1 0.4-0.1 0.4-0.1 0.7-0.1 0.3-0.1 0.6 0.1 0.9 0.3 1.7 0 0.2 0.1 0.4 0.1 0.3 0.3 0.6 0.1 0.2 0.1 0.3 0.1 0.2 0.2 0.3 0.1 0 0.1 0.1 0.2 0.3 0.5 0.6 0.6 0.6 1.2 1 0.2 0.1 0.4 0.3 1.2 0.7 2.6 1.2 0.5 0.2 1.1 0.4 1.5 0.5 3 0.9 0.8 0.2 1.5 0.3 0.8 0.2 1.6 0.4 0.9 0.3 1.9 0.5 0.7 0.2 1.4 0.4 1 0.2 1.9 0.5 0.1 0.1 0.3 0.1 0.5 0.2 1.1 0.4 0.4 0.1 0.7 0.2 0.4 0.2 0.7 0.3 1.3 0.5 2.4 1.1 0.6 0.3 1.1 0.7 0.3 0.2 0.6 0.4 0.2 0.2 0.5 0.4 0.5 0.3 0.9 0.8 0.3 0.2 0.5 0.5 0.1 0.1 0.3 0.3 0.5 0.6 0.9 1.3 0.1 0.2 0.2 0.4 0 0 0.1 0.1 0.1 0.3 0.2 0.5 0.2 0.3 0.3 0.6 0 0.1 0.1 0.2 0 0.3 0.1 0.5 0.1 0.3 0.2 0.7z"/>
		<path id="Layer" class="s0" d="m591.9 243.4v6.1h-35.5v-49h34.5v6.1h-27.5v15h24.5v6h-24.5v15.8z"/>
	</g>
	<g id="Layer">
		<path id="Layer" class="s1" d="m703.6 181.2c-59.6 20.9-116-55.5-64.4-99.8l14.2 17.2c-28.3 23-2.2 65.3 30.1 64.1 44.4-1.5 65.9-56.7 39.5-90.8-73.5-88.6-188.1 26.4-131.1 108.5h-26.2l-54-62.7 14.9-16.4 29 35.2c-1.4-73.6 73.6-143.5 148.8-107.4 23 11 41.3 32.2 48.6 56.6 12 38.6-11 83.1-49.4 95.5z"/>
		<path id="Layer" class="s1" d="m218.2 136.5c-0.4 8.4-1.2 16.1-3.2 24.4h65.1l-8.8 19.5h-89.3c57-82-57.6-197.1-131.1-108.5-26.4 34.1-4.9 89.3 39.5 90.8 32.3 1.2 58.4-41.1 30.1-64l14.2-17.3c51.6 44.3-4.8 120.7-64.4 99.8-38.4-12.4-61.4-56.9-49.4-95.4 7.3-24.5 25.6-45.6 48.6-56.7 75.2-36.1 150.2 33.8 148.8 107.4z"/>
		<path id="Layer" class="s1" d="m553.6 59.2l-67.4 70.8v-28.5l41.2-42.3h26.2z"/>
		<path id="Layer" class="s1" d="m454.5 23.4h22.4v157h-22.4z"/>
		<path id="Layer" class="s1" d="m351.7 23.4h22.2l71.3 157h-23.6l-58.9-134.1-33.8 76.9h58.3l7.9 17.9h-74.1l-17.3 39.3h-23.1l71.1-157z"/>
	</g>
</svg>