<svg id="Layer_1" data-name="Layer 1" xmlns="http://www.w3.org/2000/svg" viewBox="0 0 744 239.04"><defs><style>.cls-1{fill:#fff;}</style></defs><path class="cls-1" d="M201.91,184.87v21.06H173.78V184.87h-7v49h7V212h28.13v21.83h7v-49Z"/><path class="cls-1" d="M280.69,184.31c-15,0-26.1,10.71-26.1,25.05a25,25,0,0,0,3.64,13.21,22.53,22.53,0,0,0,1.36,2,24.71,24.71,0,0,0,2.41,2.7l.71.65c.17.16.34.3.51.44s.44.37.66.54.61.47.92.69.68.47,1,.69c.69.44,1.4.84,2.14,1.22l1.13.53c.38.18.77.34,1.16.49l1.2.44,1.24.38,1.26.32c.42.1.84.19,1.27.27h0c.43.08.86.15,1.3.21s.73.1,1.11.13l.36,0,1.2.08h.06c.46,0,.92,0,1.39,0s.86,0,1.29,0c.87,0,1.72-.11,2.55-.21l.52-.08c.7-.1,1.4-.23,2.08-.38h0l.55-.13.9-.24a24.34,24.34,0,0,0,2.41-.81c.37-.14.73-.29,1.09-.45l.18-.08,1-.49c.37-.18.74-.38,1.09-.58s.71-.42,1.05-.64.6-.38.89-.59.74-.53,1.1-.81c.63-.5,1.24-1,1.82-1.59a23.78,23.78,0,0,0,4.37-5.73c.38-.71.74-1.44,1.06-2.2a25.92,25.92,0,0,0,1.18-3.55c.2-.82.37-1.65.49-2.5a26.9,26.9,0,0,0,.29-3.95C306.65,195,295.59,184.31,280.69,184.31Zm18.59,29a18.3,18.3,0,0,1-.45,1.84,18,18,0,0,1-4.59,7.71c-.32.31-.65.62-1,.91s-.69.57-1.05.83-.49.35-.75.51l-.6.38q-.47.28-1,.54c-.27.14-.54.28-.82.4-.48.22-1,.43-1.49.61l-.32.11-.79.25c-.46.13-.93.25-1.4.35l-.64.13c-.28.05-.56.1-.85.13l-.65.08c-.32,0-.65.06-1,.08s-.84,0-1.26,0-.85,0-1.27,0-.67,0-1-.08-.43,0-.64-.08a8.67,8.67,0,0,1-.89-.13l-.61-.13a13.74,13.74,0,0,1-1.44-.35c-.26-.07-.51-.15-.76-.24l-.36-.12c-.52-.18-1-.39-1.51-.61-.28-.12-.56-.26-.83-.4s-.62-.33-.91-.51l-.66-.41-.75-.51c-.39-.28-.76-.58-1.13-.89s-.63-.56-.92-.85a16.74,16.74,0,0,1-2.28-2.75,16.3,16.3,0,0,1-.93-1.55c-.16-.29-.3-.59-.44-.89s-.21-.45-.3-.68-.25-.62-.36-.94-.18-.52-.26-.78-.16-.52-.22-.79-.1-.38-.14-.58-.07-.3-.1-.45a19,19,0,0,1-.34-2.53c0-.21,0-.43,0-.64s0-.59,0-.89,0-.76,0-1.13.05-.74.09-1.11.06-.55.11-.82.06-.42.1-.63.08-.43.13-.64a.3.3,0,0,1,0-.1c.05-.25.11-.49.17-.73s.1-.38.16-.56l0-.11.27-.82c.09-.26.18-.51.29-.76s.26-.64.41-.95.27-.55.41-.81a14.13,14.13,0,0,1,.93-1.55c.19-.29.4-.58.61-.86l.14-.17A7.93,7.93,0,0,1,266,197l.16-.18c.18-.21.37-.42.57-.62a1.37,1.37,0,0,1,.17-.17q.36-.37.75-.72h0c.28-.25.56-.49.85-.71l0,0a8.12,8.12,0,0,1,.75-.56l.35-.24.35-.23c.19-.12.38-.24.58-.35a16,16,0,0,1,1.65-.85,4.32,4.32,0,0,1,.45-.19c.23-.11.47-.2.71-.29l.21-.08q.45-.17.93-.3a12.41,12.41,0,0,1,1.23-.35c.36-.08.72-.16,1.09-.22a9.07,9.07,0,0,1,.91-.14c.22,0,.44-.06.66-.08s.65-.06,1-.08.84,0,1.27,0c10.84,0,19,8,19,18.82A20.85,20.85,0,0,1,299.28,213.28Z"/><path class="cls-1" d="M387.31,184.87v27.57c0,5.43-1.26,9.37-3.62,11.94-.15.16-.3.32-.46.46a5.12,5.12,0,0,1-.48.44,11.14,11.14,0,0,1-1,.78l-.57.34a13,13,0,0,1-4.56,1.55,20.74,20.74,0,0,1-3.13.23l-1,0-.58,0q-.6,0-1.17-.12l-.61-.1-.7-.14-.54-.13a8,8,0,0,1-.87-.26l-.1,0c-.31-.1-.6-.22-.89-.34s-.41-.18-.6-.28a10.58,10.58,0,0,1-1.3-.77c-.3-.21-.59-.43-.87-.67s-.33-.29-.48-.44a10.51,10.51,0,0,1-1.65-2.06c-.12-.18-.23-.37-.34-.57,0,0,0,0,0,0a4.52,4.52,0,0,1-.25-.49,7.28,7.28,0,0,1-.37-.8q-.18-.42-.33-.87c-.09-.27-.18-.55-.26-.84a22.73,22.73,0,0,1-.81-5.57c0-.38,0-.77,0-1.17V184.87h-7v27.85A26.75,26.75,0,0,0,354.89,224a18.76,18.76,0,0,0,.95,1.78c.17.28.35.56.53.83a16.43,16.43,0,0,0,1.19,1.53c.21.25.43.48.65.71a12.79,12.79,0,0,0,1.08,1q.31.29.66.54a17.18,17.18,0,0,0,2.07,1.36,26.07,26.07,0,0,0,22.78,0,16.63,16.63,0,0,0,7.1-7.75,18.68,18.68,0,0,0,.78-1.94,28.5,28.5,0,0,0,1.42-9.38V184.87Z"/><path class="cls-1" d="M484.68,217.37a6.36,6.36,0,0,0-.18-.66,3.68,3.68,0,0,0-.15-.47l-.09-.26c-.07-.19-.15-.37-.23-.54s-.16-.35-.25-.52a1.09,1.09,0,0,0-.08-.15,3.38,3.38,0,0,0-.24-.41,8.84,8.84,0,0,0-.85-1.22l-.33-.38c-.14-.16-.29-.31-.44-.46a10.76,10.76,0,0,0-.95-.84l-.51-.39-.53-.37c-.36-.24-.74-.46-1.12-.67a21.17,21.17,0,0,0-2.45-1.15l-.65-.25-.75-.27-1.12-.37-.24-.07c-.64-.2-1.3-.38-1.95-.56-.46-.13-.93-.25-1.39-.36l-1.9-.47-1.55-.38-1.5-.38c-1-.27-2.05-.55-3-.86-.4-.13-.78-.27-1.16-.41a15.76,15.76,0,0,1-2.54-1.22l-.44-.29a7.66,7.66,0,0,1-1.14-1,6,6,0,0,1-.57-.67l0-.05-.21-.31c-.06-.1-.11-.2-.16-.3a4.17,4.17,0,0,1-.29-.65c0-.11-.08-.22-.11-.33a6.15,6.15,0,0,1-.23-1.71c0-.22,0-.43,0-.64s0-.42.08-.63.06-.29.1-.44a1,1,0,0,1,.06-.23.25.25,0,0,1,0-.07,4.34,4.34,0,0,1,.16-.47q.1-.27.24-.54l0,0a4.48,4.48,0,0,1,.32-.56,4.6,4.6,0,0,1,.38-.52,4,4,0,0,1,.44-.5q.14-.15.3-.3l.46-.38a3.36,3.36,0,0,1,.43-.31,4.53,4.53,0,0,1,.46-.3,13.92,13.92,0,0,1,5.79-1.71l.83-.07.53,0,.48,0h.77c.41,0,.82,0,1.23,0,.2,0,.41,0,.62,0s.42,0,.63.06l.72.08.21,0,.76.13.55.1.91.2c.65.15,1.31.34,2,.55s1.14.39,1.7.62a25.05,25.05,0,0,1,3.33,1.64l.81.49,2.31-5.59c-4.06-2.8-10-4.34-15.74-4.34l-1.19,0-.71,0c-.75,0-1.48.1-2.18.19-.31,0-.61.08-.9.12l-.08,0c-.37.05-.73.12-1.08.19h0l-.85.19c-.43.1-.84.21-1.24.33s-.66.21-1,.32c-.57.2-1.1.42-1.62.66a15.43,15.43,0,0,0-1.46.76c-.3.18-.6.37-.88.57s-.46.32-.68.49l-.11.09c-.18.14-.35.28-.51.43l-.28.24-.52.52a11.51,11.51,0,0,0-1.19,1.44l-.24.34c-.1.15-.19.3-.28.45s-.19.32-.27.48-.28.54-.41.82-.32.79-.45,1.19a4.74,4.74,0,0,0-.15.5c0,.13-.08.27-.11.41l-.09.42c0,.22-.09.45-.12.68s-.07.46-.09.69,0,.46-.05.69,0,.47,0,.71,0,.54,0,.8a13.54,13.54,0,0,0,.18,1.63c0,.24.08.47.13.69a11.94,11.94,0,0,0,.43,1.43c.07.19.15.37.23.56s.18.4.29.6.19.35.29.53a10.08,10.08,0,0,0,.93,1.29c.1.13.21.25.32.37l.36.38c.19.19.39.38.6.56s.56.47.86.69.71.49,1.08.72.76.44,1.16.65.81.39,1.23.58.74.31,1.12.45.76.29,1.15.42l.33.11.85.27c.85.26,1.71.5,2.58.73,1.16.3,2.32.58,3.46.86l1.35.33,1.33.34.65.18,1.25.36c.82.25,1.6.52,2.32.82a10.94,10.94,0,0,1,1,.47l.52.28.43.25c.15.09.3.18.44.28l.41.3a6.68,6.68,0,0,1,.73.66,5.25,5.25,0,0,1,.61.73,1.64,1.64,0,0,1,.14.22,2.9,2.9,0,0,1,.2.33c.06.12.12.24.17.36a2.14,2.14,0,0,1,.1.22,2.83,2.83,0,0,1,.11.31l.05.17a3.38,3.38,0,0,1,.08.34,5.42,5.42,0,0,1,.11.72,6.08,6.08,0,0,1,0,.61c0,.22,0,.43,0,.64a3.11,3.11,0,0,1-.06.44.28.28,0,0,1,0,.09,1.57,1.57,0,0,1,0,.23,3.59,3.59,0,0,1-.12.47,4.72,4.72,0,0,1-.18.53,5.79,5.79,0,0,1-.31.67,4.94,4.94,0,0,1-.3.49,3,3,0,0,1-.31.42l-.17.21c-.11.13-.23.25-.35.37a7.77,7.77,0,0,1-1.24,1,3.64,3.64,0,0,1-.39.23,8.63,8.63,0,0,1-1.14.56l-.54.21a6.45,6.45,0,0,1-.62.21c-.33.1-.68.2-1.05.28l-.37.08-.23,0c-.38.08-.78.15-1.19.2l-.8.09-.66,0-.46,0-.75,0h-.78c-.44,0-.89,0-1.33,0s-.59,0-.88-.06a26.05,26.05,0,0,1-3.66-.56c-.73-.17-1.45-.37-2.15-.58-.36-.11-.71-.23-1.06-.36l-1-.4c-.34-.14-.68-.28-1-.43s-.65-.31-1-.47a17.3,17.3,0,0,1-1.59-.9,12.22,12.22,0,0,1-1-.68,16.36,16.36,0,0,1-1.48-1.19h0l-1.05,2.2-1.54,3.25h0l0,0c.23.22.48.43.73.64h0c.27.22.55.43.84.64h0c.3.21.61.42.92.61s.64.39,1,.58h0c.33.19.68.36,1,.54h0c.35.18.72.34,1.09.51h0l.57.24c.34.14.69.28,1.05.4l.73.25c.41.14.82.27,1.24.39l1.28.34c.87.21,1.76.39,2.66.54a35,35,0,0,0,5.54.45l1.19,0,.73,0c.75,0,1.47-.1,2.16-.19q.48,0,.93-.12l.08,0c.35-.05.7-.11,1-.18l.09,0c.31-.06.61-.12.91-.2a22.07,22.07,0,0,0,2.17-.63c.32-.11.63-.23.94-.36s.64-.27.94-.42.46-.22.68-.34.7-.39,1-.6a6.25,6.25,0,0,0,.6-.4c.18-.12.35-.24.51-.37l.33-.26a13.2,13.2,0,0,0,1.1-1c.15-.15.29-.31.43-.46s.28-.32.4-.48.2-.24.29-.37a12,12,0,0,0,2.07-4.48c0-.17.08-.33.11-.5s.06-.31.08-.46.06-.42.08-.63,0-.46.05-.69,0-.47,0-.7A13.59,13.59,0,0,0,484.68,217.37Z"/><path class="cls-1" d="M548.16,227.76V212h24.56V206H548.16V191h27.57v-6.09H541.16v49h35.55v-6.09Z"/><path class="cls-1" d="M737.78,70.14a93.75,93.75,0,0,0-48.56-56.66C614-22.64,539,47.26,540.44,120.86h0l-29.08-35.2-14.92,16.4,54,62.71h26.23c-57.05-82,57.58-197.12,131.06-108.52,26.4,34.12,4.91,89.32-39.52,90.8-32.28,1.27-58.33-41.06-30-64L624,65.78c-51.55,44.32,4.81,120.75,64.43,99.83C726.75,153.16,749.82,108.69,737.78,70.14Z"/><path class="cls-1" d="M203.05,120.87c1.49-73.6-73.56-143.5-148.78-107.38A93.75,93.75,0,0,0,5.71,70.15c-12,38.55,11,83,49.4,95.47,59.62,20.92,116-55.51,64.43-99.83L105.27,83.06c28.3,23,2.25,65.28-30,64-44.43-1.48-65.92-56.68-39.52-90.8,73.48-88.6,188.11,26.48,131.06,108.52h89.35L265,145.27H199.83A123.75,123.75,0,0,0,203.05,120.87Z"/><polygon class="cls-1" points="538.44 43.59 470.99 114.44 470.99 85.94 512.16 43.59 538.44 43.59"/><rect class="cls-1" x="439.29" y="7.85" width="22.41" height="156.92"/><polygon class="cls-1" points="336.5 7.85 265.43 164.78 288.52 164.78 305.78 125.54 379.86 125.54 372 107.61 313.67 107.61 347.48 30.71 406.44 164.78 429.98 164.78 358.69 7.85 336.5 7.85"/></svg>