<?xml version="1.0" encoding="utf-8"?>
<!-- Generator: Adobe Illustrator 26.0.0, SVG Export Plug-In . SVG Version: 6.00 Build 0)  -->
<svg version="1.1" id="Layer_1" xmlns="http://www.w3.org/2000/svg" xmlns:xlink="http://www.w3.org/1999/xlink" x="0px" y="0px"
	 viewBox="0 0 744 239.04" style="enable-background:new 0 0 744 239.04;" xml:space="preserve">
<style type="text/css">
	.st0{fill:#7B0E35;}
</style>
<g>
	<g>
		<path fill="#FFFFFF" d="M201.91,184.87v21.06h-28.13v-21.06h-6.99v48.98h6.99v-21.83h28.13v21.83h7v-48.98H201.91z"/>
		<path fill="#FFFFFF" d="M280.69,184.31c-15.04,0-26.1,10.71-26.1,25.05c0,4.93,1.31,9.43,3.64,13.21c0.42,0.69,0.87,1.35,1.36,1.99
			c0.74,0.96,1.54,1.86,2.41,2.7c0.23,0.22,0.47,0.44,0.71,0.65c0.17,0.16,0.34,0.3,0.51,0.44c0.22,0.19,0.44,0.37,0.66,0.54
			c0.3,0.24,0.61,0.47,0.92,0.69c0.34,0.24,0.68,0.47,1.03,0.69c0.69,0.44,1.4,0.84,2.14,1.22c0.37,0.18,0.75,0.36,1.13,0.53
			c0.38,0.18,0.77,0.34,1.16,0.49c0.4,0.15,0.8,0.3,1.2,0.44c0.41,0.13,0.82,0.26,1.24,0.38c0.41,0.11,0.83,0.22,1.26,0.32
			c0.42,0.1,0.84,0.19,1.27,0.27h0.04c0.43,0.08,0.86,0.15,1.3,0.21c0.37,0.05,0.73,0.1,1.11,0.13c0.12,0.02,0.24,0.03,0.36,0.04
			c0.4,0.03,0.8,0.06,1.2,0.08h0.06c0.46,0.02,0.92,0.03,1.39,0.03c0.43,0,0.86-0.01,1.29-0.03c0.87-0.03,1.72-0.11,2.55-0.21
			c0.18-0.02,0.35-0.05,0.52-0.08c0.7-0.1,1.4-0.23,2.08-0.38c0.01,0,0.03,0,0.04-0.01c0.19-0.04,0.37-0.08,0.55-0.13
			c0.3-0.07,0.6-0.15,0.9-0.24c0.82-0.23,1.63-0.5,2.41-0.81c0.37-0.14,0.73-0.29,1.09-0.45c0.06-0.03,0.12-0.05,0.18-0.08
			c0.34-0.16,0.68-0.32,1.01-0.49c0.37-0.18,0.74-0.38,1.09-0.58c0.36-0.21,0.71-0.42,1.05-0.64c0.3-0.19,0.6-0.38,0.89-0.59
			c0.38-0.26,0.74-0.53,1.1-0.81c0.63-0.5,1.24-1.03,1.82-1.59c1.73-1.67,3.21-3.6,4.37-5.73c0.38-0.71,0.74-1.44,1.06-2.2
			c0.47-1.14,0.87-2.32,1.18-3.55c0.2-0.82,0.37-1.65,0.49-2.5c0.19-1.28,0.29-2.6,0.29-3.95
			C306.65,194.95,295.59,184.31,280.69,184.31z M299.28,213.28c-0.12,0.63-0.27,1.24-0.45,1.84c-0.89,3-2.48,5.62-4.59,7.71
			c-0.32,0.31-0.65,0.62-0.99,0.91c-0.34,0.29-0.69,0.57-1.05,0.83c-0.25,0.18-0.49,0.35-0.75,0.51c-0.19,0.13-0.4,0.26-0.6,0.38
			c-0.31,0.19-0.63,0.37-0.96,0.54c-0.27,0.14-0.54,0.28-0.82,0.4c-0.48,0.22-0.98,0.43-1.49,0.61c-0.11,0.04-0.21,0.08-0.32,0.11
			c-0.26,0.09-0.53,0.17-0.79,0.25c-0.46,0.13-0.93,0.25-1.4,0.35c-0.21,0.05-0.42,0.09-0.64,0.13c-0.28,0.05-0.56,0.1-0.85,0.13
			c-0.21,0.03-0.43,0.06-0.65,0.08c-0.32,0.04-0.65,0.06-0.98,0.08c-0.42,0.03-0.84,0.04-1.26,0.04c-0.43,0-0.85-0.01-1.27-0.04
			c-0.34-0.02-0.67-0.04-0.99-0.08c-0.22-0.02-0.43-0.04-0.64-0.08c-0.3-0.03-0.6-0.07-0.89-0.13c-0.21-0.04-0.41-0.08-0.61-0.13
			c-0.49-0.09-0.97-0.21-1.44-0.35c-0.26-0.07-0.51-0.15-0.76-0.24c-0.12-0.03-0.24-0.07-0.36-0.12c-0.52-0.18-1.02-0.39-1.51-0.61
			c-0.28-0.12-0.56-0.26-0.83-0.4c-0.31-0.16-0.62-0.33-0.91-0.51c-0.22-0.13-0.44-0.27-0.66-0.41c-0.25-0.16-0.5-0.33-0.75-0.51
			c-0.39-0.28-0.76-0.58-1.13-0.89c-0.32-0.28-0.63-0.56-0.92-0.85c-0.85-0.83-1.62-1.75-2.28-2.75c-0.34-0.5-0.65-1.02-0.93-1.55
			c-0.16-0.29-0.3-0.59-0.44-0.89c-0.11-0.22-0.21-0.45-0.3-0.68c-0.13-0.31-0.25-0.62-0.36-0.94c-0.09-0.26-0.18-0.52-0.26-0.78
			c-0.08-0.26-0.16-0.52-0.22-0.79c-0.05-0.19-0.1-0.38-0.14-0.58c-0.04-0.15-0.07-0.3-0.1-0.45c-0.17-0.82-0.28-1.67-0.34-2.53
			c-0.02-0.21-0.03-0.43-0.04-0.64c-0.01-0.3-0.02-0.59-0.02-0.89c0-0.38,0.01-0.76,0.03-1.13c0.02-0.37,0.05-0.74,0.09-1.11
			c0.03-0.28,0.06-0.55,0.11-0.82c0.02-0.21,0.06-0.42,0.1-0.63c0.04-0.22,0.08-0.43,0.13-0.64c0-0.04,0.01-0.07,0.02-0.1
			c0.05-0.25,0.11-0.49,0.17-0.73c0.05-0.19,0.1-0.38,0.16-0.56c0.01-0.04,0.02-0.07,0.03-0.11c0.09-0.28,0.18-0.55,0.27-0.82
			c0.09-0.26,0.18-0.51,0.29-0.76c0.13-0.32,0.26-0.64,0.41-0.95c0.13-0.28,0.27-0.55,0.41-0.81c0.28-0.54,0.59-1.06,0.93-1.55
			c0.19-0.29,0.4-0.58,0.61-0.86c0.05-0.06,0.09-0.11,0.14-0.17c0.16-0.22,0.34-0.44,0.53-0.65c0.05-0.06,0.1-0.12,0.16-0.18
			c0.18-0.21,0.37-0.42,0.57-0.62c0.05-0.06,0.11-0.12,0.17-0.17c0.24-0.25,0.49-0.49,0.75-0.72c0,0,0,0,0.01,0
			c0.28-0.25,0.56-0.49,0.85-0.71c0.01-0.01,0.02-0.02,0.03-0.02c0.24-0.2,0.49-0.39,0.75-0.56c0.11-0.08,0.23-0.16,0.35-0.24
			c0.12-0.08,0.23-0.15,0.35-0.23c0.19-0.12,0.38-0.24,0.58-0.35c0.53-0.31,1.08-0.6,1.65-0.85c0.15-0.07,0.3-0.14,0.45-0.19
			c0.23-0.11,0.47-0.2,0.71-0.29c0.07-0.03,0.14-0.06,0.21-0.08c0.3-0.11,0.61-0.21,0.93-0.3c0.4-0.14,0.81-0.25,1.23-0.35
			c0.36-0.08,0.72-0.16,1.09-0.22c0.3-0.06,0.6-0.11,0.91-0.14c0.22-0.04,0.44-0.06,0.66-0.08c0.32-0.04,0.65-0.06,0.99-0.08
			c0.42-0.03,0.84-0.04,1.27-0.04c10.84,0,18.96,7.97,18.96,18.82C299.65,210.72,299.52,212.02,299.28,213.28z"/>
		<path fill="#FFFFFF" d="M387.31,184.87v27.57c0,5.43-1.26,9.37-3.62,11.94c-0.15,0.16-0.3,0.32-0.46,0.46c-0.14,0.15-0.31,0.3-0.48,0.44
			c-0.33,0.28-0.67,0.54-1.03,0.78c-0.18,0.11-0.37,0.23-0.57,0.34c-1.32,0.77-2.85,1.28-4.56,1.55c-0.98,0.15-2.03,0.23-3.13,0.23
			c-0.35,0-0.69-0.01-1.03-0.02c-0.2-0.01-0.39-0.02-0.58-0.04c-0.4-0.03-0.79-0.07-1.17-0.12c-0.21-0.03-0.41-0.06-0.61-0.1
			c-0.24-0.04-0.47-0.09-0.7-0.14c-0.19-0.04-0.36-0.08-0.54-0.13c-0.3-0.07-0.59-0.16-0.87-0.26c-0.03-0.01-0.07-0.02-0.1-0.03
			c-0.31-0.1-0.6-0.22-0.89-0.34c-0.21-0.09-0.41-0.18-0.6-0.28c-0.45-0.23-0.89-0.48-1.3-0.77c-0.3-0.21-0.59-0.43-0.87-0.67
			c-0.17-0.14-0.33-0.29-0.48-0.44c-0.62-0.6-1.17-1.28-1.65-2.06c-0.12-0.18-0.23-0.37-0.34-0.57c0-0.01-0.01-0.02-0.01-0.03
			c-0.09-0.16-0.18-0.32-0.25-0.49c-0.14-0.26-0.26-0.52-0.37-0.8c-0.12-0.28-0.23-0.57-0.33-0.87c-0.09-0.27-0.18-0.55-0.26-0.84
			c-0.47-1.62-0.74-3.47-0.81-5.57c-0.01-0.38-0.02-0.77-0.02-1.17v-27.57h-7v27.85c0,4.44,0.77,8.22,2.21,11.32
			c0.29,0.62,0.61,1.22,0.95,1.78c0.17,0.28,0.35,0.56,0.53,0.83c0.37,0.54,0.77,1.05,1.19,1.53c0.21,0.25,0.43,0.48,0.65,0.71
			c0.34,0.35,0.7,0.69,1.08,1c0.21,0.19,0.43,0.37,0.66,0.54c0.65,0.5,1.34,0.95,2.07,1.36c3.12,1.74,6.95,2.62,11.37,2.62
			c4.45,0,8.29-0.88,11.41-2.62c0.85-0.48,1.65-1.01,2.39-1.61c0.49-0.41,0.97-0.83,1.41-1.29c1.34-1.37,2.44-2.99,3.3-4.85
			c0.29-0.62,0.55-1.26,0.78-1.94c0.94-2.7,1.42-5.83,1.42-9.38v-27.85H387.31z"/>
		<path fill="#FFFFFF" d="M484.68,217.37c-0.05-0.23-0.11-0.45-0.18-0.66c-0.04-0.16-0.09-0.32-0.15-0.47c-0.03-0.09-0.06-0.18-0.09-0.26
			c-0.07-0.19-0.15-0.37-0.23-0.54c-0.08-0.18-0.16-0.35-0.25-0.52c-0.02-0.05-0.05-0.1-0.08-0.15c-0.07-0.14-0.15-0.28-0.24-0.41
			c-0.25-0.44-0.54-0.84-0.85-1.22c-0.11-0.13-0.22-0.26-0.33-0.38c-0.14-0.16-0.29-0.31-0.44-0.46c-0.3-0.3-0.62-0.58-0.95-0.84
			c-0.16-0.13-0.33-0.26-0.51-0.39s-0.35-0.25-0.53-0.37c-0.36-0.24-0.74-0.46-1.12-0.67c-0.77-0.43-1.6-0.81-2.45-1.15
			c-0.22-0.08-0.43-0.17-0.65-0.25c-0.25-0.09-0.5-0.18-0.75-0.27c-0.37-0.13-0.74-0.25-1.12-0.37c-0.08-0.02-0.16-0.05-0.24-0.07
			c-0.64-0.2-1.3-0.38-1.95-0.56c-0.46-0.13-0.93-0.25-1.39-0.36c-0.63-0.16-1.27-0.32-1.9-0.47c-0.52-0.13-1.04-0.26-1.55-0.38
			c-0.5-0.12-1.01-0.25-1.5-0.38c-1.04-0.27-2.05-0.55-3-0.86c-0.4-0.13-0.78-0.27-1.16-0.41c-0.93-0.36-1.79-0.76-2.54-1.22
			c-0.15-0.09-0.3-0.19-0.44-0.29c-0.42-0.29-0.81-0.61-1.14-0.95c-0.21-0.21-0.4-0.44-0.57-0.67c-0.01-0.02-0.02-0.03-0.03-0.05
			c-0.07-0.1-0.14-0.2-0.21-0.31c-0.06-0.1-0.11-0.2-0.16-0.3c-0.12-0.21-0.21-0.43-0.29-0.65c-0.04-0.11-0.08-0.22-0.11-0.33
			c-0.15-0.52-0.23-1.09-0.23-1.71c0-0.22,0.01-0.43,0.03-0.64c0.02-0.21,0.04-0.42,0.08-0.63c0.03-0.15,0.06-0.29,0.1-0.44
			c0.01-0.08,0.03-0.15,0.06-0.23c0-0.02,0.01-0.04,0.02-0.07c0.04-0.16,0.1-0.31,0.16-0.47c0.07-0.18,0.15-0.36,0.24-0.54
			c0.01-0.01,0.02-0.02,0.02-0.03c0.09-0.19,0.2-0.38,0.32-0.56c0.11-0.18,0.24-0.35,0.38-0.52c0.13-0.17,0.27-0.34,0.44-0.5
			c0.09-0.1,0.19-0.2,0.3-0.3c0.14-0.12,0.3-0.25,0.46-0.38c0.13-0.11,0.28-0.22,0.43-0.31c0.15-0.11,0.3-0.21,0.46-0.3
			c1.44-0.86,3.36-1.47,5.79-1.71c0.27-0.03,0.55-0.05,0.83-0.07c0.17-0.01,0.35-0.02,0.53-0.03c0.16-0.01,0.32-0.02,0.48-0.02
			c0.25-0.01,0.51-0.01,0.77-0.01c0.41,0,0.82,0.01,1.23,0.04c0.2,0,0.41,0.02,0.62,0.04c0.21,0.01,0.42,0.03,0.63,0.06
			c0.24,0.02,0.48,0.05,0.72,0.08c0.07,0.01,0.14,0.02,0.21,0.03c0.25,0.04,0.51,0.08,0.76,0.13c0.18,0.03,0.36,0.06,0.55,0.1
			c0.3,0.06,0.61,0.13,0.91,0.2c0.65,0.15,1.31,0.34,1.96,0.55c0.57,0.18,1.14,0.39,1.7,0.62c1.13,0.46,2.25,1,3.33,1.64
			c0.27,0.16,0.54,0.32,0.81,0.49l2.31-5.59c-4.06-2.8-10.01-4.34-15.74-4.34c-0.4,0-0.8,0.01-1.19,0.02
			c-0.24,0.01-0.47,0.02-0.71,0.03c-0.75,0.04-1.48,0.1-2.18,0.19c-0.31,0.03-0.61,0.08-0.9,0.12c-0.03,0.01-0.05,0.01-0.08,0.02
			c-0.37,0.05-0.73,0.12-1.08,0.19c0,0-0.01,0-0.02,0c-0.29,0.06-0.57,0.12-0.85,0.19c-0.43,0.1-0.84,0.21-1.24,0.33
			c-0.34,0.1-0.66,0.21-0.98,0.32c-0.57,0.2-1.1,0.42-1.62,0.66c-0.51,0.23-1,0.49-1.46,0.76c-0.3,0.18-0.6,0.37-0.88,0.57
			c-0.23,0.15-0.46,0.32-0.68,0.49c-0.04,0.03-0.08,0.06-0.11,0.09c-0.18,0.14-0.35,0.28-0.51,0.43c-0.1,0.08-0.19,0.16-0.28,0.24
			c-0.18,0.18-0.35,0.35-0.52,0.52c-0.44,0.46-0.84,0.93-1.19,1.44c-0.08,0.11-0.16,0.22-0.24,0.34c-0.1,0.15-0.19,0.3-0.28,0.45
			c-0.1,0.16-0.19,0.32-0.27,0.48c-0.15,0.27-0.28,0.54-0.41,0.82c-0.17,0.39-0.32,0.79-0.45,1.19c-0.06,0.17-0.11,0.33-0.15,0.5
			c-0.04,0.13-0.08,0.27-0.11,0.41c-0.03,0.14-0.06,0.28-0.09,0.42c-0.05,0.22-0.09,0.45-0.12,0.68c-0.04,0.23-0.07,0.46-0.09,0.69
			c-0.02,0.23-0.04,0.46-0.05,0.69c-0.01,0.24-0.02,0.47-0.02,0.71c0,0.27,0.01,0.54,0.02,0.8c0.03,0.57,0.09,1.12,0.18,1.63
			c0.04,0.24,0.08,0.47,0.13,0.69c0.12,0.5,0.26,0.98,0.43,1.43c0.07,0.19,0.15,0.37,0.23,0.56c0.09,0.2,0.18,0.4,0.29,0.6
			c0.09,0.18,0.19,0.35,0.29,0.53c0.28,0.46,0.59,0.89,0.93,1.29c0.1,0.13,0.21,0.25,0.32,0.37c0.12,0.13,0.24,0.26,0.36,0.38
			c0.19,0.19,0.39,0.38,0.6,0.56c0.27,0.24,0.56,0.47,0.86,0.69c0.34,0.25,0.71,0.49,1.08,0.72c0.38,0.23,0.76,0.44,1.16,0.65
			c0.4,0.2,0.81,0.39,1.23,0.58c0.37,0.16,0.74,0.31,1.12,0.45c0.38,0.15,0.76,0.29,1.15,0.42c0.11,0.04,0.22,0.07,0.33,0.11
			c0.28,0.09,0.56,0.18,0.85,0.27c0.85,0.26,1.71,0.5,2.58,0.73c1.16,0.3,2.32,0.58,3.46,0.86c0.45,0.11,0.91,0.22,1.35,0.33
			c0.45,0.11,0.89,0.23,1.33,0.34c0.22,0.06,0.43,0.12,0.65,0.18c0.42,0.12,0.84,0.24,1.25,0.36c0.82,0.25,1.6,0.52,2.32,0.82
			c0.36,0.14,0.71,0.3,1.04,0.47c0.18,0.09,0.35,0.18,0.52,0.28c0.15,0.08,0.29,0.16,0.43,0.25c0.15,0.09,0.3,0.18,0.44,0.28
			c0.14,0.1,0.28,0.2,0.41,0.3c0.27,0.21,0.51,0.43,0.73,0.66c0.23,0.23,0.43,0.47,0.61,0.73c0.05,0.07,0.1,0.14,0.14,0.22
			c0.08,0.11,0.14,0.22,0.2,0.33c0.06,0.12,0.12,0.24,0.17,0.36c0.04,0.07,0.07,0.15,0.1,0.22c0.04,0.1,0.08,0.2,0.11,0.31
			c0.02,0.06,0.03,0.11,0.05,0.17c0.03,0.11,0.06,0.22,0.08,0.34c0.05,0.23,0.09,0.47,0.11,0.72c0.02,0.2,0.03,0.4,0.03,0.61
			c0,0.22-0.01,0.43-0.03,0.64c-0.01,0.15-0.03,0.3-0.06,0.44c0,0.03,0,0.06-0.01,0.09c-0.01,0.08-0.02,0.16-0.04,0.23
			c-0.03,0.16-0.07,0.32-0.12,0.47c-0.05,0.18-0.11,0.36-0.18,0.53c-0.09,0.23-0.19,0.45-0.31,0.67c-0.09,0.17-0.19,0.33-0.3,0.49
			c-0.09,0.15-0.19,0.28-0.31,0.42c-0.05,0.07-0.11,0.14-0.17,0.21c-0.11,0.13-0.23,0.25-0.35,0.37c-0.36,0.35-0.77,0.68-1.24,0.98
			c-0.12,0.08-0.25,0.16-0.39,0.23c-0.35,0.21-0.73,0.39-1.14,0.56c-0.18,0.08-0.36,0.15-0.54,0.21c-0.2,0.08-0.41,0.15-0.62,0.21
			c-0.33,0.1-0.68,0.2-1.05,0.28c-0.12,0.03-0.24,0.06-0.37,0.08c-0.08,0.02-0.15,0.03-0.23,0.04c-0.38,0.08-0.78,0.15-1.19,0.2
			c-0.26,0.03-0.53,0.06-0.8,0.09c-0.21,0.02-0.43,0.04-0.66,0.05c-0.15,0.01-0.31,0.02-0.46,0.03l-0.75,0.03
			c-0.25,0.01-0.51,0.01-0.78,0.01c-0.44,0-0.89-0.01-1.33-0.04c-0.3-0.01-0.59-0.03-0.88-0.06c-1.24-0.1-2.47-0.29-3.66-0.56
			c-0.73-0.17-1.45-0.37-2.15-0.58c-0.36-0.11-0.71-0.23-1.06-0.36c-0.35-0.13-0.69-0.26-1.03-0.4c-0.34-0.14-0.68-0.28-1-0.43
			c-0.33-0.15-0.65-0.31-0.96-0.47c-0.56-0.28-1.09-0.58-1.59-0.9c-0.36-0.21-0.7-0.44-1.03-0.68c-0.53-0.38-1.03-0.78-1.48-1.19
			v0.01l-1.05,2.2l-1.54,3.25l0.01,0.01c0.01,0.01,0.02,0.02,0.03,0.02c0.23,0.22,0.48,0.43,0.73,0.64c0.01,0,0.01,0,0.01,0
			c0.27,0.22,0.55,0.43,0.84,0.64h0.01c0.3,0.21,0.61,0.42,0.92,0.61c0.32,0.2,0.64,0.39,0.98,0.58c0.01,0,0.01,0,0.01,0
			c0.33,0.19,0.68,0.36,1.04,0.54h0.01c0.35,0.18,0.72,0.34,1.09,0.51c0.01,0,0.01,0,0.01,0c0.19,0.08,0.38,0.16,0.57,0.24
			c0.34,0.14,0.69,0.28,1.05,0.4c0.24,0.09,0.49,0.17,0.73,0.25c0.41,0.14,0.82,0.27,1.24,0.39c0.42,0.12,0.85,0.23,1.28,0.34
			c0.87,0.21,1.76,0.39,2.66,0.54c1.8,0.29,3.67,0.45,5.54,0.45c0.4,0,0.8-0.01,1.19-0.02c0.25-0.01,0.49-0.02,0.73-0.03
			c0.75-0.04,1.47-0.1,2.16-0.19c0.32-0.03,0.63-0.07,0.93-0.12c0.03-0.01,0.06-0.01,0.08-0.02c0.35-0.05,0.7-0.11,1.04-0.18
			c0.03,0,0.06-0.01,0.09-0.02c0.31-0.06,0.61-0.12,0.91-0.2c0.76-0.18,1.48-0.39,2.17-0.63c0.32-0.11,0.63-0.23,0.94-0.36
			c0.32-0.13,0.64-0.27,0.94-0.42c0.24-0.11,0.46-0.22,0.68-0.34c0.36-0.19,0.7-0.39,1.03-0.6c0.21-0.12,0.41-0.26,0.6-0.4
			c0.18-0.12,0.35-0.24,0.51-0.37c0.11-0.09,0.22-0.17,0.33-0.26c0.39-0.32,0.76-0.65,1.1-1c0.15-0.15,0.29-0.31,0.43-0.46
			c0.14-0.16,0.28-0.32,0.4-0.48c0.1-0.12,0.2-0.24,0.29-0.37c1.01-1.36,1.7-2.87,2.07-4.48c0.04-0.17,0.08-0.33,0.11-0.5
			c0.03-0.16,0.06-0.31,0.08-0.46c0.03-0.21,0.06-0.42,0.08-0.63c0.02-0.23,0.04-0.46,0.05-0.69s0.02-0.47,0.02-0.7
			C485.02,219.34,484.9,218.31,484.68,217.37z"/>
		<path fill="#FFFFFF" d="M548.16,227.76v-15.81h24.56V206h-24.56v-15.04h27.57v-6.09h-34.57v48.98h35.55v-6.09H548.16z"/>
	</g>
	<g>
		<path fill="#FFFFFF" class="st0" d="M737.78,70.14c-7.32-24.49-25.55-45.6-48.56-56.66C614-22.64,538.95,47.26,540.44,120.86c0,0,0,0.01,0,0.01
			l-29.07-35.2l-14.92,16.4l54.04,62.7h26.22C519.66,82.74,634.29-32.34,707.77,56.26c26.4,34.12,4.91,89.32-39.52,90.8
			c-32.28,1.27-58.33-41.06-30.03-64.01l-14.27-17.27c-51.55,44.32,4.81,120.75,64.43,99.83
			C726.75,153.16,749.82,108.69,737.78,70.14z"/>
		<path fill="#FFFFFF" class="st0" d="M203.05,120.87c1.49-73.6-73.56-143.5-148.78-107.38C31.26,24.55,13.03,45.66,5.71,70.15
			c-12.04,38.55,11.03,83.02,49.4,95.47c59.62,20.92,115.98-55.51,64.43-99.83l-14.27,17.27c28.3,22.95,2.25,65.28-30.03,64.01
			c-44.43-1.48-65.92-56.68-39.52-90.8c73.48-88.6,188.11,26.48,131.06,108.52l89.34-0.01l8.83-19.51h-65.13
			C201.86,137.01,202.65,129.28,203.05,120.87z"/>
		<polygon class="st0" points="538.44,43.59 470.99,114.44 470.99,85.94 512.16,43.59 		"/>
		<rect x="439.29" y="7.85" class="st0" width="22.41" height="156.92"/>
		<polygon class="st0" points="336.5,7.85 265.43,164.78 288.52,164.78 305.78,125.54 379.86,125.54 372,107.61 313.66,107.61 
			347.48,30.71 406.44,164.78 429.98,164.78 358.69,7.85 		"/>
	</g>
</g>
</svg>
