<svg xmlns="http://www.w3.org/2000/svg" width="500" height="500" enable-background="new 0 0 500 500" viewBox="0 0 500 500"><path fill="#474747" d="M485.622 477.911c-.138-.522-13.731-52.699-20.134-92.075-4.646-28.58-40.42-53.286-106.484-73.64l-16.133 11.617c10.754 3.314 26.326 8.437 42.119 14.759 40.04 16.03 61.533 31.327 65.707 46.765 11.479 42.458 19.73 86.444 22.98 104.812.735.175 1.488.293 2.263.293.837 0 1.688-.106 2.536-.328C483.82 488.718 487.019 483.254 485.622 477.911zM116.093 338.573c17.118-6.853 33.975-12.296 44.718-15.554l-16.398-11.636c-51.174 15.54-104.1 38.779-109.899 74.453-6.398 39.355-19.997 91.553-20.134 92.075-1.396 5.343 1.803 10.808 7.146 12.204.849.222 1.699.328 2.536.328.966 0 1.911-.149 2.814-.416h.553c3.265-18.443 11.505-62.329 22.958-104.689C54.56 369.899 76.053 354.603 116.093 338.573zM177.225 217.502c6.555 16.087 15.242 28.76 25.805 37.854.117.338.249.674.405 1.005.072.154 7.07 15.743 1.086 28.44-3.721 7.893-12.103 13.555-24.916 16.83-6.618 1.691-13.492 3.511-20.49 5.469l93.901 66.632 91.404-65.822c-7.684-2.155-15.727-4.257-24.131-6.306-11.616-2.833-19.462-8.046-23.32-15.497-6.758-13.057-.318-29.897-.17-30.281.062-.151.104-.304.157-.456 10.569-9.096 19.263-21.773 25.82-37.869 9.159-22.481 12.597-47.313 13.78-66.114 10.777-79.603-17.885-116.619-19.26-116.081-1.409.551-15.033 9.368-20.201 1.653S279.82 9.833 270.895 9.282c-8.926-.551-17.488 14.453-47.556 18.31-30.066 3.857-39.413 35.654-39.413 35.654l-12.827-10.761c-1.938-1.626-4.921-.862-5.801 1.51-10.719 28.867-5.07 72.296-2.255 89.124C163.697 162.438 166.647 191.541 177.225 217.502zM306.697 318.325l-53.277 37.061-55.836-38.841c11.85-5.289 20.242-13.063 25.027-23.216 3.955-8.391 4.695-17.063 4.119-24.562 7.236 2.343 15.008 3.531 23.271 3.531 8.555 0 16.577-1.284 24.031-3.794-.47 8.1.479 17.629 5.089 26.629C284.557 305.743 293.816 313.515 306.697 318.325zM182.912 132.48c6.457-5.579 13.698-9.665 22.889-8.375 16.334 2.292 26.935 14.799 42.438 15.901 1.692.12 3.631-.055 5.738-.434-6.35-6.233-14.218-12.45-23.985-18.283-2.371-1.416-3.146-4.485-1.729-6.856 1.416-2.371 4.483-3.145 6.856-1.729 12.577 7.51 22.286 15.662 29.792 23.782 4.427-1.564 9.133-3.475 13.818-5.382-7.756-13.285-21.55-28.925-45.996-40.516-2.495-1.183-3.559-4.165-2.375-6.66 1.183-2.496 4.166-3.556 6.66-2.376 27.615 13.094 42.863 30.771 51.264 45.737 9.381-3.598 17.769-6.118 22.438-4.366 2.006.752 4.052 2.266 6.068 4.238.217 2.155.333 4.339.333 6.549 0 13.43-1.255 47.744-12.865 76.246-11.607 28.491-29.354 42.341-54.254 42.341s-42.646-13.85-54.254-42.341c-11.612-28.502-12.866-62.815-12.866-76.246C182.881 133.298 182.904 132.891 182.912 132.48z"/><path fill="#474747" d="M330.619,332.637l-74.072,53.341c-1.046,0.753-2.276,1.131-3.506,1.131
		c-1.216,0-2.432-0.369-3.473-1.107l-76.307-54.147c-41.059,11.321-105.736,36.063-111.292,56.615
		c-10.929,40.421-18.903,82.271-22.354,101.558h17.423c0.577-58.481,48.578-105.714,107.717-105.714
		c59.138,0,107.139,47.233,107.716,105.714h188.996c-3.449-19.286-11.425-61.136-22.354-101.558
		C433.678,368.366,371.75,344.277,330.619,332.637z"/><path fill="#474747" d="M164.803,397.519c-50.946,0-92.394,41.448-92.394,92.394h3.937
		c0,0.038-0.003,0.076-0.004,0.114h8.643c3.772-8.875,10.933-15.297,16.32-19.148l31.096,3.129l6.979,16.019h48.803
		c1.669-7.327,3.677-17.214,4.885-23.272l27.067-7.664c8.069,5.413,22.447,15.645,26.64,22.439c0.279,2.757,0.424,5.553,0.424,8.382
		h10C257.197,438.966,215.749,397.519,164.803,397.519z M214.854,450.192l-26.33,7.455c-7.287-4.212-18.289-9.455-24.471-12.327
		l-3.079-19.382l27.737-14.871c9.521,2.893,18.312,7.466,26.035,13.374C214.904,432.171,215.059,443.195,214.854,450.192z
		 M134.06,464.124l-28.581-2.876c-2.602-5.805-5.553-14.024-7.448-19.521c6.345-8.769,14.361-16.247,23.594-21.951l29.403,7.294
		l3.116,19.617C147.285,451.756,138.965,459.443,134.06,464.124z"/></svg>